<svg width="100%" height="100%" viewBox="0 0 46 46" fill="none" xmlns="http://www.w3.org/2000/svg">
<rect x="0.5" y="0.15979" width="45" height="45" rx="8" fill="#EEE5FF"/>
<path opacity="0.3" fill-rule="evenodd" clip-rule="evenodd" d="M13.5556 13.2153L22.5649 11.5261C22.8525 11.4722 23.1475 11.4722 23.4351 11.5261L32.4444 13.2153V24.1745C32.4444 27.6387 30.6599 30.8585 27.7222 32.6945L23.6257 35.2548C23.2429 35.4941 22.7571 35.4941 22.3743 35.2548L18.2778 32.6945C15.3401 30.8585 13.5556 27.6387 13.5556 24.1745V13.2153Z" fill="#8B50FF"/>
<path fill-rule="evenodd" clip-rule="evenodd" d="M25.9514 21.4792C26.6034 21.4792 27.1319 22.0078 27.1319 22.6598V26.2014C27.1319 26.8535 26.6034 27.382 25.9514 27.382H20.0486C19.3966 27.382 18.8681 26.8535 18.8681 26.2014V22.6598C18.8681 22.0078 19.3966 21.4792 20.0486 21.4792V20.8889C20.0486 19.2589 21.37 17.9376 23 17.9376C24.63 17.9376 25.9514 19.2589 25.9514 20.8889V21.4792ZM23 19.1181C22.022 19.1181 21.2292 19.9109 21.2292 20.8889V21.4792H24.7708V20.8889C24.7708 19.9109 23.978 19.1181 23 19.1181Z" fill="#8B50FF"/>
</svg>
