<svg width="100%" height="100%" viewBox="0 0 46 46" fill="none" xmlns="http://www.w3.org/2000/svg">
<rect x="0.758057" y="0.734009" width="45" height="45" rx="8" fill="#D6F3FF"/>
<path d="M19.5134 27.2965C19.5655 29.8095 21.2582 32.7392 26.4926 32.7392C30.8936 32.7392 33.615 30.5908 33.615 27.1012C33.615 23.872 31.4145 22.609 28.8103 22.0491L26.115 21.4501C24.5264 21.1246 23.6931 20.4345 23.6931 19.4059C23.6931 18.0387 24.8259 17.1793 26.6488 17.1793C28.7061 17.1793 29.7348 18.3382 29.8259 19.5882H33.3416C33.3025 16.4501 30.6332 14.2626 26.6619 14.2626C22.8988 14.2626 19.9301 16.2027 19.9301 19.6923C19.9301 22.7132 22.0134 24.1194 24.5134 24.6533L27.1827 25.2652C28.9796 25.6689 29.891 26.2548 29.891 27.4658C29.891 28.846 28.7712 29.7835 26.6749 29.7835C24.4223 29.7835 23.2374 28.6116 23.1332 27.2965H19.5134Z" fill="#85DCFF"/>
<path d="M11.1227 27.1273C11.1227 30.122 13.0758 32.7392 17.0602 32.7392C20.7581 32.7392 23.18 30.747 23.18 26.6325V14.6273H19.4039V26.6976C19.4039 28.5465 18.5315 29.3929 17.0211 29.3929C15.7451 29.3929 14.7815 28.5595 14.7425 27.1273H11.1227Z" fill="#33C5FF"/>
</svg>
