<svg width="100%" height="100%" viewBox="0 0 46 46" fill="none" xmlns="http://www.w3.org/2000/svg">
<rect x="0.5" y="0.109009" width="45" height="45" rx="8" fill="#DEE3FE"/>
<g clip-path="url(#clip0)">
<path opacity="0.4" d="M17.5573 22.609V18.9387C17.5573 15.9309 19.9743 13.453 22.9821 13.4423C25.9899 13.4316 28.4427 15.8772 28.4427 18.885V19.4579C28.443 19.5709 28.421 19.6827 28.3779 19.7871C28.3348 19.8915 28.2715 19.9864 28.1916 20.0662C28.1118 20.1461 28.0169 20.2094 27.9125 20.2525C27.8081 20.2955 27.6963 20.3176 27.5833 20.3173H26.4375C26.3246 20.3176 26.2127 20.2955 26.1083 20.2525C26.0039 20.2094 25.9091 20.1461 25.8292 20.0662C25.7493 19.9864 25.6861 19.8915 25.643 19.7871C25.5999 19.6827 25.5778 19.5709 25.5781 19.4579V18.885C25.5776 18.5445 25.5098 18.2074 25.3784 17.8932C25.2471 17.579 25.055 17.2939 24.813 17.0543C24.5711 16.8146 24.2841 16.6252 23.9686 16.497C23.6532 16.3687 23.3155 16.3041 22.9749 16.3069C21.557 16.3212 20.4219 17.4993 20.4219 18.9172V22.609H17.5573Z" fill="#2346F8"/>
<path d="M29.3021 22.609H16.6979C16.2421 22.609 15.8049 22.7901 15.4826 23.1124C15.1603 23.4347 14.9792 23.8719 14.9792 24.3278V30.0569C14.9792 30.5128 15.1603 30.9499 15.4826 31.2723C15.8049 31.5946 16.2421 31.7757 16.6979 31.7757H29.3021C29.7579 31.7757 30.1951 31.5946 30.5174 31.2723C30.8398 30.9499 31.0208 30.5128 31.0208 30.0569V24.3278C31.0208 23.8719 30.8398 23.4347 30.5174 23.1124C30.1951 22.7901 29.7579 22.609 29.3021 22.609Z" fill="#2346F8"/>
</g>
<defs>
<clipPath id="clip0">
<rect width="16.0417" height="18.3333" fill="white" transform="translate(14.9792 13.4423)"/>
</clipPath>
</defs>
</svg>
