<svg width="100%" height="100%" viewBox="0 0 55 55" fill="none" xmlns="http://www.w3.org/2000/svg">
<rect x="0.758057" y="0.15979" width="54" height="54" rx="12" fill="#FCEFCD"/>
<path fill-rule="evenodd" clip-rule="evenodd" d="M20.6747 14.4098H34.8414C37.971 14.4098 40.5081 16.9468 40.5081 20.0765C40.5081 23.2061 37.971 25.7431 34.8414 25.7431H20.6747C17.5451 25.7431 15.0081 23.2061 15.0081 20.0765C15.0081 16.9468 17.5451 14.4098 20.6747 14.4098ZM20.6747 22.9098C22.2395 22.9098 23.5081 21.6413 23.5081 20.0765C23.5081 18.5117 22.2395 17.2431 20.6747 17.2431C19.1099 17.2431 17.8414 18.5117 17.8414 20.0765C17.8414 21.6413 19.1099 22.9098 20.6747 22.9098Z" fill="#F0B103"/>
<path opacity="0.4" fill-rule="evenodd" clip-rule="evenodd" d="M20.6747 28.5765H34.8414C37.971 28.5765 40.5081 31.1135 40.5081 34.2431C40.5081 37.3728 37.971 39.9098 34.8414 39.9098H20.6747C17.5451 39.9098 15.0081 37.3728 15.0081 34.2431C15.0081 31.1135 17.5451 28.5765 20.6747 28.5765ZM34.8414 37.0765C36.4062 37.0765 37.6747 35.8079 37.6747 34.2431C37.6747 32.6783 36.4062 31.4098 34.8414 31.4098C33.2766 31.4098 32.0081 32.6783 32.0081 34.2431C32.0081 35.8079 33.2766 37.0765 34.8414 37.0765Z" fill="#F0B103"/>
</svg>
