<svg width="100%" height="100%" viewBox="0 0 754 660" fill="none" xmlns="http://www.w3.org/2000/svg">
<g filter="url(#filter0_d)">
<path d="M60.3597 50.676C60.3597 39.6303 69.314 30.676 80.3597 30.676H653.36C664.405 30.676 673.36 39.6303 673.36 50.676V529.676C673.36 540.722 664.405 549.676 653.36 549.676H80.3598C69.3141 549.676 60.3597 540.722 60.3597 529.676V50.676Z" fill="white"/>
</g>
<path d="M60.3597 50.676C60.3597 39.6303 69.314 30.676 80.3597 30.676H653.36C664.405 30.676 673.36 39.6303 673.36 50.676V66.676H60.3597V50.676Z" fill="#21185A"/>
<circle cx="82.3597" cy="49.676" r="5" fill="#D41B44"/>
<circle cx="99.3597" cy="49.676" r="5" fill="#F0B103"/>
<circle cx="116.36" cy="49.676" r="5" fill="#00976E"/>
<rect x="60.3597" y="66.676" width="613" height="42.8718" fill="#EEEFF1"/>
<path d="M107.961 94.2346L113.961 88.2346L107.961 82.2346" stroke="#C3C8D2" stroke-width="1.5" stroke-linecap="round" stroke-linejoin="round"/>
<path d="M83.4963 94.2346L77.4963 88.2346L83.4963 82.2346" stroke="#C3C8D2" stroke-width="1.5" stroke-linecap="round" stroke-linejoin="round"/>
<path d="M641.26 87.6721H651.76" stroke="#C3C8D2" stroke-width="1.5" stroke-linecap="round" stroke-linejoin="round"/>
<path d="M649.76 90.1721L652.26 87.6721L649.76 85.1721" stroke="#C3C8D2" stroke-width="1.2" stroke-linecap="round" stroke-linejoin="round"/>
<path d="M646.76 90.6694V93.6694C646.772 93.9225 646.683 94.1697 646.512 94.3571C646.342 94.5445 646.104 94.6568 645.851 94.6694H637.669C637.416 94.6567 637.179 94.5443 637.008 94.3569C636.838 94.1695 636.749 93.9224 636.76 93.6694V81.6694C636.749 81.4165 636.838 81.1692 637.008 80.9818C637.179 80.7944 637.416 80.682 637.669 80.6694H645.851C646.104 80.682 646.342 80.7943 646.512 80.9817C646.683 81.1691 646.772 81.4164 646.76 81.6694V84.6694" stroke="#C3C8D2" stroke-width="1.5" stroke-linecap="round" stroke-linejoin="round"/>
<rect x="136.123" y="78.3542" width="482.885" height="18.6304" rx="2" fill="white"/>
<g filter="url(#filter1_d)">
<circle cx="575.555" cy="349.07" r="40" fill="white"/>
</g>
<path d="M595.206 349.074C595.206 346.471 591.945 344.003 586.947 342.473C588.1 337.378 587.587 333.325 585.328 332.027C584.808 331.723 584.199 331.578 583.534 331.578V333.365C583.902 333.365 584.199 333.437 584.447 333.573C585.537 334.198 586.009 336.577 585.641 339.637C585.553 340.39 585.408 341.183 585.232 341.993C583.662 341.608 581.948 341.312 580.145 341.119C579.064 339.637 577.942 338.292 576.813 337.114C579.424 334.687 581.876 333.357 583.542 333.357V331.57C581.339 331.57 578.455 333.14 575.539 335.864C572.623 333.156 569.739 331.602 567.536 331.602V333.389C569.194 333.389 571.654 334.711 574.265 337.122C573.144 338.3 572.022 339.637 570.957 341.119C569.146 341.312 567.432 341.608 565.862 342.001C565.677 341.2 565.541 340.422 565.445 339.677C565.068 336.617 565.533 334.238 566.615 333.605C566.855 333.461 567.167 333.397 567.536 333.397V331.61C566.863 331.61 566.254 331.755 565.725 332.059C563.474 333.357 562.97 337.402 564.131 342.481C559.148 344.019 555.904 346.479 555.904 349.074C555.904 351.678 559.164 354.145 564.163 355.675C563.01 360.77 563.522 364.824 565.781 366.122C566.302 366.426 566.911 366.57 567.584 366.57C569.787 366.57 572.671 365 575.587 362.276C578.503 364.984 581.387 366.538 583.59 366.538C584.263 366.538 584.872 366.394 585.4 366.09C587.651 364.792 588.156 360.746 586.995 355.667C591.961 354.137 595.206 351.67 595.206 349.074ZM584.776 343.731C584.479 344.764 584.111 345.83 583.694 346.895C583.366 346.254 583.021 345.614 582.645 344.973C582.276 344.332 581.884 343.707 581.491 343.098C582.629 343.266 583.726 343.475 584.776 343.731ZM581.106 352.263C580.482 353.344 579.841 354.37 579.176 355.323C577.982 355.427 576.773 355.483 575.555 355.483C574.345 355.483 573.136 355.427 571.95 355.331C571.285 354.378 570.636 353.36 570.011 352.287C569.402 351.237 568.85 350.172 568.345 349.098C568.842 348.025 569.402 346.951 570.003 345.902C570.628 344.82 571.269 343.795 571.934 342.842C573.128 342.738 574.337 342.682 575.555 342.682C576.765 342.682 577.974 342.738 579.16 342.834C579.825 343.787 580.474 344.804 581.098 345.878C581.707 346.927 582.26 347.993 582.765 349.066C582.26 350.14 581.707 351.213 581.106 352.263ZM583.694 351.221C584.127 352.295 584.495 353.368 584.8 354.41C583.75 354.666 582.645 354.882 581.499 355.051C581.892 354.434 582.284 353.801 582.653 353.152C583.021 352.511 583.366 351.862 583.694 351.221ZM575.571 359.769C574.826 359 574.081 358.143 573.344 357.205C574.065 357.238 574.802 357.262 575.547 357.262C576.3 357.262 577.045 357.246 577.774 357.205C577.053 358.143 576.308 359 575.571 359.769ZM569.611 355.051C568.473 354.882 567.376 354.674 566.326 354.418C566.623 353.384 566.991 352.319 567.408 351.253C567.736 351.894 568.081 352.535 568.457 353.176C568.834 353.817 569.218 354.442 569.611 355.051ZM575.531 338.38C576.276 339.149 577.021 340.006 577.758 340.943C577.037 340.911 576.3 340.887 575.555 340.887C574.802 340.887 574.057 340.903 573.328 340.943C574.049 340.006 574.794 339.149 575.531 338.38ZM569.603 343.098C569.21 343.715 568.818 344.348 568.449 344.997C568.081 345.638 567.736 346.278 567.408 346.919C566.975 345.846 566.607 344.772 566.302 343.731C567.352 343.483 568.457 343.266 569.603 343.098ZM562.353 353.128C559.517 351.918 557.682 350.332 557.682 349.074C557.682 347.817 559.517 346.222 562.353 345.021C563.042 344.724 563.795 344.46 564.572 344.212C565.028 345.782 565.629 347.416 566.374 349.09C565.637 350.757 565.044 352.383 564.596 353.945C563.803 353.697 563.05 353.424 562.353 353.128ZM566.663 364.576C565.573 363.951 565.101 361.571 565.469 358.511C565.557 357.758 565.701 356.965 565.878 356.156C567.448 356.541 569.162 356.837 570.965 357.029C572.046 358.511 573.168 359.857 574.297 361.035C571.686 363.462 569.234 364.792 567.568 364.792C567.207 364.784 566.903 364.712 566.663 364.576ZM585.665 358.471C586.041 361.531 585.577 363.911 584.495 364.544C584.255 364.688 583.942 364.752 583.574 364.752C581.916 364.752 579.456 363.43 576.845 361.019C577.966 359.841 579.088 358.503 580.153 357.021C581.964 356.829 583.678 356.533 585.248 356.14C585.432 356.949 585.577 357.726 585.665 358.471ZM588.749 353.128C588.06 353.424 587.307 353.689 586.53 353.937C586.073 352.367 585.472 350.733 584.727 349.058C585.464 347.392 586.057 345.766 586.506 344.204C587.299 344.452 588.052 344.724 588.757 345.021C591.593 346.23 593.427 347.817 593.427 349.074C593.419 350.332 591.585 351.926 588.749 353.128Z" fill="#61DAFB"/>
<path d="M575.547 352.735C577.569 352.735 579.208 351.096 579.208 349.074C579.208 347.052 577.569 345.413 575.547 345.413C573.525 345.413 571.886 347.052 571.886 349.074C571.886 351.096 573.525 352.735 575.547 352.735Z" fill="#61DAFB"/>
<g filter="url(#filter2_d)">
<circle cx="575.555" cy="469.289" r="40" fill="white"/>
</g>
<path d="M574.984 486.289C574.528 486.289 574.076 486.17 573.677 485.94L569.518 483.477C568.897 483.13 569.2 483.007 569.405 482.936C570.233 482.646 570.401 482.581 571.285 482.079C571.378 482.026 571.5 482.044 571.595 482.1L574.79 483.997C574.906 484.059 575.069 484.059 575.176 483.997L587.635 476.805C587.75 476.74 587.825 476.606 587.825 476.468V462.092C587.825 461.948 587.75 461.82 587.632 461.749L575.179 454.563C575.063 454.495 574.91 454.495 574.795 454.563L562.344 461.749C562.223 461.817 562.146 461.951 562.146 462.088V476.465C562.146 476.602 562.221 476.733 562.34 476.799L565.751 478.77C567.604 479.696 568.736 478.605 568.736 477.507V463.317C568.736 463.114 568.895 462.959 569.098 462.959H570.676C570.872 462.959 571.034 463.114 571.034 463.317V477.513C571.034 479.983 569.687 481.402 567.345 481.402C566.625 481.402 566.057 481.402 564.473 480.622L561.205 478.739C560.397 478.271 559.898 477.398 559.898 476.465V462.088C559.898 461.153 560.397 460.28 561.205 459.818L573.676 452.624C574.465 452.178 575.513 452.178 576.295 452.624L588.751 459.821C589.556 460.286 590.058 461.156 590.058 462.092V476.468C590.058 477.401 589.556 478.271 588.751 478.739L576.295 485.933C575.896 486.164 575.444 486.283 574.983 486.283" fill="#689F63"/>
<path d="M578.832 476.383C573.381 476.383 572.238 473.88 572.238 471.781C572.238 471.582 572.399 471.423 572.599 471.423H574.208C574.386 471.423 574.535 471.552 574.563 471.728C574.807 473.367 575.53 474.195 578.827 474.195C581.452 474.195 582.569 473.601 582.569 472.209C582.569 471.407 582.251 470.812 578.172 470.413C574.76 470.076 572.652 469.324 572.652 466.595C572.652 464.082 574.772 462.585 578.324 462.585C582.313 462.585 584.29 463.97 584.54 466.945C584.549 467.048 584.512 467.147 584.443 467.222C584.374 467.294 584.278 467.338 584.178 467.338H582.559C582.391 467.338 582.244 467.219 582.21 467.057C581.82 465.332 580.879 464.78 578.318 464.78C575.452 464.78 575.118 465.778 575.118 466.527C575.118 467.434 575.511 467.699 579.378 468.211C583.208 468.719 585.026 469.436 585.026 472.128C585.026 474.841 582.762 476.397 578.814 476.397L578.832 476.383ZM593.989 461.15H594.407C594.75 461.15 594.816 460.91 594.816 460.77C594.816 460.402 594.563 460.402 594.423 460.402H593.992L593.989 461.15ZM593.481 459.972H594.407C594.725 459.972 595.349 459.972 595.349 460.683C595.349 461.178 595.031 461.281 594.84 461.344C595.212 461.369 595.237 461.612 595.286 461.955C595.311 462.17 595.352 462.541 595.427 462.666H594.856C594.84 462.541 594.753 461.855 594.753 461.818C594.716 461.665 594.663 461.59 594.472 461.59H594.002V462.669H593.481V459.972ZM592.367 461.313C592.367 462.429 593.269 463.333 594.376 463.333C595.492 463.333 596.394 462.41 596.394 461.313C596.394 460.193 595.48 459.304 594.373 459.304C593.281 459.304 592.364 460.181 592.364 461.309L592.367 461.313ZM596.78 461.319C596.78 462.641 595.698 463.72 594.379 463.72C593.069 463.72 591.978 462.654 591.978 461.319C591.978 459.959 593.094 458.917 594.379 458.917C595.673 458.917 596.777 459.962 596.777 461.319" fill="#689F63"/>
<path d="M60.3597 109.586H163.47V549.714H80.3597C69.314 549.714 60.3597 540.76 60.3597 529.714V109.586Z" fill="#F7F9FA"/>
<path d="M254.305 257.555H233.978C219.347 247.996 219.249 240.531 222.882 230.608V230.517C226.614 220.411 233.978 207.939 233.978 188.366H254.305C254.305 190.096 254.403 191.734 254.501 193.282C256.759 228.514 282.487 239.256 254.305 257.555Z" fill="#F7F9FA"/>
<path d="M254.305 257.555H233.978C219.347 247.996 219.249 240.531 222.882 230.608V230.517C227.792 218.226 240.164 203.751 254.305 188.366C254.305 190.096 254.403 191.734 254.501 193.282C256.759 228.514 282.487 239.256 254.305 257.555Z" fill="#EEEFF1"/>
<path d="M254.305 257.554H233.979C256.368 247.722 255.484 222.96 254.502 193.281C256.76 228.513 282.487 239.256 254.305 257.554Z" fill="#C3C8D2"/>
<path fill-rule="evenodd" clip-rule="evenodd" d="M260.945 201.37C260.72 201.162 260.542 200.915 260.421 200.643C260.299 200.372 260.237 200.08 260.237 199.786V190.643C260.237 190.049 260.491 189.48 260.944 189.06C261.397 188.64 262.012 188.404 262.652 188.404H272.516C273.156 188.404 273.771 188.64 274.224 189.059L286.416 200.363C287.358 201.237 287.358 202.655 286.416 203.53L276.552 212.673C276.099 213.092 275.485 213.328 274.844 213.328C274.204 213.328 273.59 213.092 273.137 212.673L260.945 201.369V201.37ZM267.792 195.407C267.957 195.254 268.089 195.072 268.178 194.871C268.268 194.671 268.314 194.456 268.314 194.239C268.314 194.022 268.268 193.808 268.179 193.607C268.09 193.407 267.958 193.225 267.793 193.071C267.628 192.918 267.431 192.796 267.215 192.713C266.999 192.63 266.767 192.587 266.533 192.587C266.299 192.587 266.068 192.629 265.851 192.712C265.635 192.795 265.439 192.917 265.273 193.07C264.939 193.38 264.751 193.8 264.751 194.238C264.751 194.676 264.938 195.096 265.272 195.406C265.606 195.716 266.059 195.89 266.532 195.89C267.004 195.891 267.458 195.717 267.792 195.407Z" fill="#EEEFF1"/>
<rect x="204.493" y="174.838" width="92.3949" height="91.5137" stroke="#EEEFF1"/>
<rect x="202.595" y="264.852" width="4" height="4" fill="#C3C8D2"/>
<rect x="202.595" y="218.96" width="4" height="4" fill="#C3C8D2"/>
<rect x="202.595" y="172.338" width="4" height="4" fill="#C3C8D2"/>
<rect x="295.388" y="264.852" width="4" height="4" fill="#C3C8D2"/>
<rect x="295.388" y="218.96" width="4" height="4" fill="#C3C8D2"/>
<rect x="295.388" y="172.338" width="4" height="4" fill="#C3C8D2"/>
<rect x="344.125" y="199.107" width="55.4319" height="6.32777" rx="2" fill="#EEEFF1"/>
<rect x="344.125" y="217.797" width="208.375" height="6.32777" rx="2" fill="#EEEFF1"/>
<rect x="344.125" y="236.486" width="208.375" height="6.32777" rx="2" fill="#EEEFF1"/>
<g filter="url(#filter3_d)">
<circle cx="413.123" cy="349.07" r="40" fill="white"/>
</g>
<g clip-path="url(#clip0)">
<path fill-rule="evenodd" clip-rule="evenodd" d="M418.715 353.019C416.016 355.009 412.103 356.07 408.734 356.07C404.01 356.07 399.757 354.323 396.539 351.417C396.287 351.189 396.513 350.877 396.816 351.055C400.289 353.075 404.582 354.291 409.017 354.291C412.008 354.291 415.298 353.672 418.323 352.388C418.78 352.194 419.162 352.687 418.715 353.019Z" fill="#FF9900"/>
<path fill-rule="evenodd" clip-rule="evenodd" d="M419.838 351.735C419.494 351.294 417.557 351.526 416.687 351.629C416.422 351.662 416.382 351.431 416.62 351.265C418.163 350.179 420.695 350.493 420.99 350.857C421.286 351.223 420.914 353.761 419.464 354.972C419.241 355.158 419.029 355.059 419.128 354.812C419.453 353.999 420.183 352.177 419.838 351.735Z" fill="#FF9900"/>
<path fill-rule="evenodd" clip-rule="evenodd" d="M416.748 343.599V342.544C416.748 342.384 416.869 342.277 417.015 342.277H421.741C421.892 342.277 422.014 342.386 422.014 342.544V343.447C422.012 343.599 421.884 343.797 421.658 344.111L419.209 347.607C420.119 347.585 421.079 347.72 421.904 348.186C422.09 348.291 422.141 348.444 422.155 348.596V349.723C422.155 349.876 421.985 350.056 421.807 349.963C420.353 349.201 418.422 349.118 416.814 349.971C416.651 350.06 416.479 349.882 416.479 349.729V348.659C416.479 348.487 416.481 348.194 416.653 347.933L419.49 343.864H417.021C416.869 343.864 416.748 343.757 416.748 343.599Z" fill="black"/>
<path fill-rule="evenodd" clip-rule="evenodd" d="M399.508 350.186H398.07C397.933 350.175 397.824 350.072 397.813 349.941V342.562C397.813 342.414 397.937 342.297 398.091 342.297H399.431C399.571 342.303 399.682 342.41 399.692 342.544V343.508H399.718C400.068 342.576 400.726 342.141 401.611 342.141C402.511 342.141 403.073 342.576 403.478 343.508C403.826 342.576 404.616 342.141 405.464 342.141C406.066 342.141 406.725 342.39 407.128 342.948C407.583 343.569 407.49 344.471 407.49 345.261L407.488 349.919C407.488 350.066 407.365 350.186 407.211 350.186H405.775C405.631 350.175 405.516 350.06 405.516 349.919V346.008C405.516 345.696 405.545 344.92 405.476 344.624C405.369 344.129 405.047 343.989 404.63 343.989C404.283 343.989 403.919 344.222 403.771 344.594C403.623 344.966 403.638 345.589 403.638 346.008V349.919C403.638 350.066 403.514 350.186 403.36 350.186H401.925C401.779 350.175 401.666 350.06 401.666 349.919L401.664 346.008C401.664 345.185 401.799 343.973 400.778 343.973C399.745 343.973 399.785 345.154 399.785 346.008V349.919C399.785 350.066 399.662 350.186 399.508 350.186" fill="black"/>
<path fill-rule="evenodd" clip-rule="evenodd" d="M426.082 342.141C428.216 342.141 429.371 343.973 429.371 346.303C429.371 348.554 428.095 350.339 426.082 350.339C423.987 350.339 422.847 348.507 422.847 346.224C422.847 343.927 424.002 342.141 426.082 342.141ZM426.095 343.648C425.035 343.648 424.968 345.092 424.968 345.991C424.968 346.893 424.954 348.819 426.082 348.819C427.197 348.819 427.249 347.265 427.249 346.319C427.249 345.696 427.223 344.952 427.035 344.362C426.873 343.848 426.552 343.648 426.095 343.648Z" fill="black"/>
<path fill-rule="evenodd" clip-rule="evenodd" d="M432.137 350.186H430.705C430.562 350.175 430.446 350.06 430.446 349.919L430.444 342.537C430.456 342.402 430.576 342.297 430.721 342.297H432.054C432.179 342.303 432.283 342.388 432.311 342.503V343.632H432.337C432.74 342.622 433.304 342.141 434.297 342.141C434.942 342.141 435.571 342.374 435.975 343.011C436.351 343.601 436.351 344.594 436.351 345.308V349.953C436.335 350.082 436.216 350.186 436.074 350.186H434.632C434.501 350.175 434.392 350.078 434.378 349.953V345.945C434.378 345.138 434.471 343.957 433.478 343.957C433.128 343.957 432.806 344.192 432.647 344.548C432.444 344.999 432.418 345.447 432.418 345.945V349.919C432.416 350.066 432.291 350.186 432.137 350.186" fill="black"/>
<path fill-rule="evenodd" clip-rule="evenodd" d="M412.98 346.661C412.98 347.221 412.994 347.688 412.711 348.186C412.483 348.59 412.119 348.839 411.716 348.839C411.164 348.839 410.841 348.418 410.841 347.797C410.841 346.572 411.939 346.349 412.98 346.349V346.661ZM414.43 350.165C414.335 350.25 414.198 350.256 414.09 350.2C413.613 349.803 413.526 349.619 413.265 349.241C412.477 350.046 411.917 350.287 410.895 350.287C409.684 350.287 408.744 349.54 408.744 348.046C408.744 346.879 409.375 346.084 410.277 345.696C411.057 345.352 412.147 345.292 412.98 345.197V345.011C412.98 344.669 413.007 344.264 412.804 343.969C412.63 343.704 412.295 343.595 411.997 343.595C411.449 343.595 410.962 343.876 410.843 344.459C410.818 344.588 410.723 344.715 410.592 344.721L409.199 344.572C409.081 344.546 408.95 344.45 408.984 344.271C409.304 342.58 410.833 342.07 412.2 342.07C412.899 342.07 413.813 342.256 414.365 342.786C415.065 343.439 414.998 344.311 414.998 345.259V347.5C414.998 348.173 415.278 348.469 415.54 348.833C415.631 348.962 415.652 349.118 415.534 349.215C415.241 349.46 414.719 349.915 414.432 350.169L414.43 350.165" fill="black"/>
<path fill-rule="evenodd" clip-rule="evenodd" d="M394.131 346.661C394.131 347.221 394.145 347.688 393.862 348.186C393.633 348.59 393.271 348.839 392.867 348.839C392.315 348.839 391.993 348.418 391.993 347.798C391.993 346.572 393.092 346.35 394.131 346.35V346.661ZM395.581 350.166C395.486 350.251 395.348 350.257 395.241 350.2C394.764 349.804 394.679 349.62 394.416 349.241C393.627 350.046 393.069 350.287 392.046 350.287C390.837 350.287 389.894 349.541 389.894 348.046C389.894 346.879 390.527 346.085 391.427 345.696C392.208 345.353 393.298 345.292 394.131 345.197V345.011C394.131 344.669 394.157 344.265 393.957 343.969C393.781 343.705 393.445 343.595 393.15 343.595C392.602 343.595 392.113 343.876 391.993 344.459C391.969 344.588 391.874 344.716 391.745 344.722L390.349 344.572C390.232 344.546 390.103 344.451 390.135 344.271C390.457 342.58 391.983 342.071 393.35 342.071C394.05 342.071 394.964 342.257 395.516 342.786C396.216 343.44 396.149 344.311 396.149 345.26V347.5C396.149 348.174 396.428 348.469 396.691 348.833C396.784 348.962 396.804 349.118 396.687 349.215C396.394 349.46 395.872 349.915 395.585 350.17L395.581 350.166" fill="black"/>
</g>
<g filter="url(#filter4_d)">
<circle cx="413.555" cy="469.289" r="40" fill="white"/>
</g>
<g filter="url(#filter5_d)">
<circle cx="250.691" cy="349.066" r="40" fill="white"/>
</g>
<g clip-path="url(#clip1)">
<path d="M233.658 336.566H267.707C269.862 336.566 271.606 338.31 271.606 340.465V353.462C271.606 355.617 269.862 357.361 267.707 357.361H255.496L257.172 361.466L249.802 357.361H233.675C231.52 357.361 229.776 355.617 229.776 353.462V340.465C229.759 338.327 231.503 336.566 233.658 336.566Z" fill="#9B5C8F"/>
<path d="M232.158 340.12C232.396 339.797 232.753 339.627 233.229 339.593C234.096 339.525 234.589 339.933 234.709 340.817C235.236 344.371 235.814 347.381 236.426 349.846L240.15 342.755C240.49 342.109 240.915 341.769 241.425 341.735C242.173 341.684 242.632 342.16 242.819 343.164C243.245 345.425 243.789 347.347 244.435 348.979C244.877 344.66 245.625 341.548 246.679 339.627C246.934 339.151 247.309 338.913 247.802 338.878C248.193 338.844 248.55 338.964 248.873 339.219C249.196 339.474 249.366 339.797 249.4 340.188C249.417 340.494 249.366 340.749 249.23 341.004C248.567 342.228 248.023 344.286 247.581 347.142C247.156 349.914 247.002 352.074 247.104 353.621C247.138 354.046 247.07 354.42 246.9 354.743C246.696 355.117 246.39 355.321 245.999 355.355C245.557 355.389 245.098 355.185 244.656 354.726C243.075 353.111 241.816 350.696 240.898 347.483C239.793 349.659 238.977 351.291 238.449 352.38C237.446 354.301 236.596 355.287 235.882 355.338C235.423 355.372 235.032 354.981 234.692 354.165C233.824 351.938 232.889 347.636 231.886 341.259C231.818 340.817 231.92 340.426 232.158 340.12ZM268.7 342.789C268.088 341.718 267.186 341.072 265.979 340.817C265.656 340.749 265.35 340.715 265.061 340.715C263.428 340.715 262.102 341.565 261.065 343.266C260.181 344.711 259.739 346.309 259.739 348.061C259.739 349.37 260.011 350.492 260.555 351.428C261.167 352.499 262.068 353.145 263.275 353.4C263.598 353.468 263.905 353.502 264.194 353.502C265.843 353.502 267.169 352.652 268.19 350.951C269.074 349.489 269.516 347.891 269.516 346.139C269.533 344.813 269.244 343.708 268.7 342.789ZM266.557 347.5C266.319 348.622 265.894 349.455 265.265 350.016C264.772 350.458 264.313 350.645 263.888 350.56C263.479 350.475 263.139 350.118 262.884 349.455C262.68 348.928 262.578 348.401 262.578 347.908C262.578 347.483 262.612 347.057 262.697 346.666C262.85 345.969 263.139 345.289 263.598 344.643C264.16 343.81 264.755 343.47 265.367 343.589C265.775 343.674 266.115 344.031 266.37 344.694C266.574 345.221 266.676 345.748 266.676 346.241C266.676 346.683 266.642 347.108 266.557 347.5ZM258.055 342.789C257.443 341.718 256.525 341.072 255.334 340.817C255.011 340.749 254.705 340.715 254.416 340.715C252.784 340.715 251.458 341.565 250.42 343.266C249.536 344.711 249.094 346.309 249.094 348.061C249.094 349.37 249.366 350.492 249.91 351.428C250.522 352.499 251.424 353.145 252.631 353.4C252.954 353.468 253.26 353.502 253.549 353.502C255.198 353.502 256.525 352.652 257.545 350.951C258.429 349.489 258.871 347.891 258.871 346.139C258.871 344.813 258.599 343.708 258.055 342.789ZM255.896 347.5C255.658 348.622 255.232 349.455 254.603 350.016C254.11 350.458 253.651 350.645 253.226 350.56C252.818 350.475 252.478 350.118 252.223 349.455C252.019 348.928 251.917 348.401 251.917 347.908C251.917 347.483 251.951 347.057 252.036 346.666C252.189 345.969 252.478 345.289 252.937 344.643C253.498 343.81 254.093 343.47 254.705 343.589C255.113 343.674 255.453 344.031 255.709 344.694C255.913 345.221 256.015 345.748 256.015 346.241C256.032 346.683 255.981 347.108 255.896 347.5Z" fill="white"/>
</g>
<g filter="url(#filter6_d)">
<circle cx="251.555" cy="469.284" r="40" fill="white"/>
</g>
<g clip-path="url(#clip2)">
<path fill-rule="evenodd" clip-rule="evenodd" d="M243.603 467.375L243.652 468.254C244.213 467.574 244.95 467.234 245.862 467.234C247.443 467.234 248.247 468.142 248.275 469.956V474.983H246.571V470.054C246.571 469.572 246.467 469.214 246.259 468.982C246.051 468.75 245.711 468.634 245.238 468.634C244.551 468.634 244.038 468.946 243.702 469.569V474.983H241.997V467.375H243.604H243.603ZM253.354 475.124C252.274 475.124 251.398 474.783 250.727 474.101C250.056 473.419 249.721 472.511 249.721 471.376V471.166C249.721 470.406 249.867 469.728 250.159 469.13C250.451 468.532 250.862 468.067 251.39 467.734C251.919 467.402 252.508 467.235 253.158 467.235C254.191 467.235 254.99 467.566 255.553 468.226C256.117 468.888 256.399 469.822 256.399 471.032V471.721H251.439C251.491 472.349 251.7 472.846 252.067 473.212C252.434 473.577 252.896 473.76 253.453 473.76C254.233 473.76 254.869 473.444 255.361 472.811L256.279 473.69C255.975 474.144 255.57 474.497 255.063 474.748C254.555 474.999 253.986 475.124 253.355 475.124H253.354ZM253.151 468.606C252.683 468.606 252.306 468.77 252.018 469.098C251.73 469.426 251.547 469.884 251.467 470.47H254.715V470.343C254.678 469.771 254.526 469.339 254.259 469.046C253.993 468.753 253.623 468.606 253.151 468.606ZM259.857 465.526V467.376H261.197V468.641H259.857V472.888C259.857 473.178 259.915 473.388 260.029 473.517C260.143 473.646 260.348 473.71 260.643 473.71C260.844 473.71 261.044 473.686 261.239 473.64V474.962C260.851 475.07 260.477 475.124 260.117 475.124C258.807 475.124 258.153 474.4 258.153 472.951V468.641H256.903V467.375H258.152V465.526H259.856L259.857 465.526ZM264.312 474.984H262.607V464.184H264.312V474.984ZM267.981 474.984H266.276V467.376H267.981V474.984ZM266.171 465.4C266.171 465.138 266.253 464.92 266.419 464.746C266.586 464.573 266.823 464.486 267.131 464.486C267.44 464.486 267.679 464.573 267.847 464.746C268.015 464.92 268.099 465.138 268.099 465.4C268.099 465.658 268.015 465.872 267.847 466.043C267.679 466.214 267.44 466.3 267.131 466.3C266.823 466.3 266.586 466.214 266.419 466.043C266.253 465.872 266.171 465.658 266.171 465.4V465.4ZM270.436 474.984V468.641H269.278V467.375H270.436V466.679C270.436 465.835 270.669 465.184 271.137 464.724C271.605 464.265 272.259 464.036 273.101 464.036C273.401 464.036 273.719 464.078 274.055 464.162L274.013 465.498C273.798 465.458 273.58 465.439 273.361 465.442C272.547 465.442 272.14 465.861 272.14 466.7V467.375H273.683V468.641H272.14V474.983H270.436V474.984ZM277.584 472.537L279.127 467.376H280.944L277.928 476.137C277.465 477.416 276.679 478.056 275.571 478.056C275.323 478.056 275.049 478.014 274.75 477.93V476.608L275.073 476.629C275.503 476.629 275.827 476.55 276.044 476.393C276.261 476.236 276.433 475.973 276.56 475.602L276.805 474.948L274.139 467.376H275.977L277.584 472.537Z" fill="#0E1E25"/>
<path d="M233.41 467.838L233.404 467.836C233.401 467.834 233.398 467.833 233.395 467.83C233.39 467.826 233.387 467.82 233.385 467.813C233.383 467.807 233.383 467.8 233.384 467.793L233.693 465.903L235.143 467.353L233.635 467.995C233.631 467.997 233.626 467.997 233.622 467.997H233.616C233.614 467.996 233.612 467.994 233.608 467.99C233.552 467.928 233.484 467.876 233.41 467.838ZM235.513 467.723L237.063 469.273C237.385 469.596 237.547 469.756 237.605 469.943C237.614 469.97 237.621 469.998 237.627 470.026L233.922 468.457C233.92 468.456 233.918 468.456 233.916 468.455C233.901 468.449 233.884 468.442 233.884 468.427C233.884 468.412 233.901 468.404 233.916 468.398L233.921 468.396L235.513 467.723ZM237.564 470.524C237.484 470.674 237.328 470.83 237.064 471.095L235.316 472.842L233.055 472.372L233.043 472.369C233.023 472.366 233.002 472.362 233.002 472.344C232.993 472.251 232.965 472.161 232.92 472.079C232.875 471.996 232.814 471.925 232.74 471.867C232.731 471.858 232.733 471.844 232.736 471.83C232.736 471.828 232.736 471.826 232.737 471.825L233.162 469.214L233.163 469.206C233.166 469.186 233.169 469.162 233.187 469.162C233.278 469.151 233.366 469.122 233.446 469.076C233.526 469.03 233.595 468.969 233.651 468.896C233.655 468.892 233.657 468.888 233.662 468.886C233.675 468.88 233.69 468.886 233.703 468.891L237.563 470.524H237.564ZM234.914 473.244L232.039 476.119L232.531 473.095L232.532 473.091C232.533 473.087 232.533 473.083 232.535 473.079C232.539 473.07 232.549 473.066 232.559 473.062L232.564 473.06C232.671 473.014 232.767 472.943 232.842 472.853C232.851 472.842 232.863 472.831 232.878 472.829C232.882 472.828 232.885 472.828 232.889 472.829L234.913 473.245L234.914 473.244ZM231.431 476.727L231.107 477.051L227.525 471.874C227.524 471.873 227.522 471.871 227.521 471.869C227.515 471.861 227.509 471.854 227.511 471.845C227.511 471.838 227.515 471.833 227.519 471.828L227.523 471.823C227.534 471.807 227.543 471.791 227.553 471.774L227.561 471.76L227.563 471.758C227.568 471.749 227.573 471.74 227.583 471.734C227.591 471.73 227.603 471.732 227.612 471.734L231.581 472.552C231.592 472.554 231.602 472.559 231.611 472.566C231.616 472.571 231.617 472.576 231.619 472.583C231.646 472.688 231.698 472.785 231.769 472.866C231.84 472.948 231.93 473.012 232.03 473.053C232.041 473.058 232.036 473.071 232.031 473.084C232.028 473.09 232.026 473.096 232.025 473.102C231.975 473.406 231.546 476.021 231.431 476.727ZM230.754 477.404C230.515 477.64 230.375 477.765 230.215 477.816C230.058 477.865 229.89 477.865 229.733 477.816C229.547 477.756 229.385 477.596 229.063 477.273L225.466 473.676L226.406 472.219C226.41 472.212 226.415 472.205 226.422 472.2C226.432 472.193 226.446 472.196 226.458 472.2C226.674 472.265 226.905 472.253 227.113 472.167C227.124 472.163 227.135 472.16 227.143 472.168C227.148 472.171 227.151 472.176 227.155 472.18L230.754 477.404V477.404ZM225.119 473.329L224.294 472.504L225.924 471.809C225.928 471.807 225.932 471.806 225.937 471.806C225.951 471.806 225.959 471.82 225.966 471.832C225.982 471.857 225.999 471.882 226.018 471.906L226.023 471.912C226.028 471.919 226.025 471.926 226.02 471.932L225.12 473.329H225.119ZM223.929 472.139L222.885 471.095C222.707 470.917 222.579 470.788 222.489 470.678L225.663 471.336C225.667 471.337 225.671 471.337 225.675 471.338C225.695 471.341 225.717 471.345 225.717 471.363C225.717 471.383 225.693 471.392 225.673 471.4L225.664 471.404L223.929 472.139ZM222.307 470.141C222.31 470.074 222.322 470.007 222.343 469.943C222.402 469.756 222.563 469.596 222.885 469.273L224.221 467.937C224.836 468.83 225.453 469.722 226.071 470.612C226.082 470.626 226.094 470.642 226.082 470.654C226.023 470.719 225.965 470.789 225.924 470.866C225.919 470.875 225.912 470.884 225.904 470.89C225.899 470.894 225.893 470.892 225.887 470.891H225.886L222.307 470.14V470.141ZM224.579 467.58L226.374 465.783C226.543 465.857 227.158 466.117 227.707 466.349C228.123 466.525 228.503 466.685 228.622 466.737C228.634 466.742 228.645 466.746 228.65 466.758C228.653 466.766 228.651 466.775 228.65 466.782C228.621 466.912 228.626 467.047 228.662 467.174C228.699 467.302 228.766 467.419 228.859 467.514C228.871 467.526 228.859 467.543 228.849 467.558L228.843 467.566L227.019 470.391C227.014 470.399 227.01 470.406 227.002 470.411C226.992 470.417 226.979 470.414 226.967 470.412C226.896 470.393 226.823 470.383 226.75 470.382C226.685 470.382 226.613 470.394 226.541 470.407H226.541C226.533 470.408 226.526 470.41 226.519 470.405C226.512 470.399 226.506 470.393 226.501 470.385L224.578 467.58H224.579ZM226.738 465.42L229.063 463.095C229.385 462.773 229.547 462.612 229.733 462.553C229.89 462.503 230.058 462.503 230.215 462.553C230.402 462.612 230.563 462.773 230.885 463.095L231.389 463.599L229.735 466.16C229.731 466.168 229.725 466.174 229.719 466.18C229.709 466.186 229.695 466.184 229.683 466.18C229.552 466.14 229.414 466.133 229.28 466.159C229.146 466.184 229.021 466.242 228.915 466.328C228.904 466.339 228.888 466.332 228.874 466.326C228.658 466.232 226.978 465.522 226.738 465.42ZM231.74 463.95L233.267 465.477L232.899 467.756V467.762C232.899 467.768 232.898 467.773 232.896 467.778C232.892 467.786 232.884 467.787 232.876 467.79C232.797 467.813 232.723 467.85 232.657 467.899C232.654 467.901 232.651 467.903 232.649 467.906C232.645 467.91 232.64 467.915 232.633 467.916C232.627 467.916 232.621 467.915 232.616 467.913L230.289 466.924L230.284 466.922C230.269 466.916 230.252 466.909 230.252 466.894C230.238 466.764 230.196 466.639 230.128 466.528C230.117 466.509 230.104 466.49 230.114 466.471L231.74 463.95ZM230.167 467.392L232.349 468.316C232.361 468.322 232.374 468.327 232.379 468.34C232.381 468.347 232.381 468.355 232.379 468.362C232.373 468.394 232.367 468.431 232.367 468.468V468.529C232.367 468.544 232.352 468.55 232.337 468.556L232.333 468.558C231.987 468.706 227.481 470.627 227.474 470.627C227.467 470.627 227.46 470.627 227.453 470.62C227.441 470.608 227.453 470.592 227.464 470.576C227.466 470.574 227.468 470.571 227.47 470.568L229.263 467.792L229.266 467.788C229.276 467.771 229.288 467.752 229.307 467.752L229.325 467.755C229.366 467.76 229.402 467.766 229.439 467.766C229.711 467.766 229.963 467.633 230.115 467.407C230.118 467.401 230.123 467.395 230.128 467.391C230.139 467.383 230.155 467.387 230.167 467.392ZM227.669 471.066L232.581 468.972C232.581 468.972 232.588 468.972 232.595 468.978C232.622 469.005 232.645 469.023 232.667 469.04L232.677 469.047C232.687 469.052 232.697 469.059 232.698 469.069C232.698 469.073 232.698 469.076 232.697 469.079L232.277 471.664L232.275 471.674C232.272 471.694 232.269 471.717 232.251 471.717C232.138 471.725 232.03 471.76 231.934 471.819C231.838 471.878 231.758 471.959 231.701 472.056L231.699 472.059C231.694 472.068 231.689 472.077 231.679 472.082C231.671 472.086 231.66 472.084 231.651 472.082L227.734 471.274C227.73 471.274 227.673 471.067 227.669 471.066Z" fill="url(#paint0_radial)"/>
</g>
<g clip-path="url(#clip3)">
<path d="M400.355 462.184H409.781V462.929H401.219V468.541H409.27V469.286H401.219V475.447H409.879V476.192H400.355V462.184ZM410.625 462.184H411.627L416.065 468.345L420.601 462.184L426.77 454.358L416.634 468.992L421.857 476.192H420.817L416.065 469.639L411.293 476.192H410.272L415.534 468.992L410.625 462.184ZM422.23 462.929V462.184H432.972V462.929H428.023V476.192H427.159V462.929H422.23Z" fill="black"/>
<path d="M388.564 462.184H389.644L404.536 484.362L398.382 476.192L389.467 463.243L389.428 476.192H388.564V462.184Z" fill="black"/>
<path d="M432.885 475.222C433.063 475.222 433.194 475.086 433.194 474.91C433.194 474.734 433.063 474.598 432.885 474.598C432.708 474.598 432.576 474.734 432.576 474.91C432.576 475.086 432.708 475.222 432.885 475.222ZM433.734 474.401C433.734 474.92 434.11 475.26 434.658 475.26C435.243 475.26 435.596 474.91 435.596 474.303V472.165H435.125V474.301C435.125 474.638 434.955 474.818 434.654 474.818C434.385 474.818 434.202 474.65 434.196 474.401H433.734ZM436.211 474.374C436.245 474.914 436.697 475.26 437.369 475.26C438.088 475.26 438.538 474.897 438.538 474.319C438.538 473.865 438.281 473.614 437.659 473.469L437.325 473.388C436.93 473.295 436.77 473.172 436.77 472.956C436.77 472.684 437.018 472.506 437.39 472.506C437.743 472.506 437.987 472.68 438.031 472.958H438.489C438.462 472.449 438.012 472.091 437.397 472.091C436.735 472.091 436.293 472.449 436.293 472.988C436.293 473.432 436.543 473.695 437.092 473.823L437.483 473.917C437.884 474.012 438.061 474.15 438.061 474.38C438.061 474.648 437.783 474.843 437.405 474.843C436.999 474.843 436.718 474.661 436.678 474.374H436.211Z" fill="black"/>
</g>
<defs>
<filter id="filter0_d" x="0.359741" y="0.676025" width="753" height="659" filterUnits="userSpaceOnUse" color-interpolation-filters="sRGB">
<feFlood flood-opacity="0" result="BackgroundImageFix"/>
<feColorMatrix in="SourceAlpha" type="matrix" values="0 0 0 0 0 0 0 0 0 0 0 0 0 0 0 0 0 0 127 0"/>
<feOffset dx="10" dy="40"/>
<feGaussianBlur stdDeviation="35"/>
<feColorMatrix type="matrix" values="0 0 0 0 0.412129 0 0 0 0 0.394965 0 0 0 0 0.520833 0 0 0 0.1 0"/>
<feBlend mode="normal" in2="BackgroundImageFix" result="effect1_dropShadow"/>
<feBlend mode="normal" in="SourceGraphic" in2="effect1_dropShadow" result="shape"/>
</filter>
<filter id="filter1_d" x="515.555" y="291.07" width="120" height="120" filterUnits="userSpaceOnUse" color-interpolation-filters="sRGB">
<feFlood flood-opacity="0" result="BackgroundImageFix"/>
<feColorMatrix in="SourceAlpha" type="matrix" values="0 0 0 0 0 0 0 0 0 0 0 0 0 0 0 0 0 0 127 0"/>
<feOffset dy="2"/>
<feGaussianBlur stdDeviation="10"/>
<feColorMatrix type="matrix" values="0 0 0 0 0.908333 0 0 0 0 0.927976 0 0 0 0 1 0 0 0 0.5 0"/>
<feBlend mode="normal" in2="BackgroundImageFix" result="effect1_dropShadow"/>
<feBlend mode="normal" in="SourceGraphic" in2="effect1_dropShadow" result="shape"/>
</filter>
<filter id="filter2_d" x="515.555" y="411.289" width="120" height="120" filterUnits="userSpaceOnUse" color-interpolation-filters="sRGB">
<feFlood flood-opacity="0" result="BackgroundImageFix"/>
<feColorMatrix in="SourceAlpha" type="matrix" values="0 0 0 0 0 0 0 0 0 0 0 0 0 0 0 0 0 0 127 0"/>
<feOffset dy="2"/>
<feGaussianBlur stdDeviation="10"/>
<feColorMatrix type="matrix" values="0 0 0 0 0.908333 0 0 0 0 0.927976 0 0 0 0 1 0 0 0 0.5 0"/>
<feBlend mode="normal" in2="BackgroundImageFix" result="effect1_dropShadow"/>
<feBlend mode="normal" in="SourceGraphic" in2="effect1_dropShadow" result="shape"/>
</filter>
<filter id="filter3_d" x="353.123" y="291.07" width="120" height="120" filterUnits="userSpaceOnUse" color-interpolation-filters="sRGB">
<feFlood flood-opacity="0" result="BackgroundImageFix"/>
<feColorMatrix in="SourceAlpha" type="matrix" values="0 0 0 0 0 0 0 0 0 0 0 0 0 0 0 0 0 0 127 0"/>
<feOffset dy="2"/>
<feGaussianBlur stdDeviation="10"/>
<feColorMatrix type="matrix" values="0 0 0 0 0.908333 0 0 0 0 0.927976 0 0 0 0 1 0 0 0 0.5 0"/>
<feBlend mode="normal" in2="BackgroundImageFix" result="effect1_dropShadow"/>
<feBlend mode="normal" in="SourceGraphic" in2="effect1_dropShadow" result="shape"/>
</filter>
<filter id="filter4_d" x="353.555" y="411.289" width="120" height="120" filterUnits="userSpaceOnUse" color-interpolation-filters="sRGB">
<feFlood flood-opacity="0" result="BackgroundImageFix"/>
<feColorMatrix in="SourceAlpha" type="matrix" values="0 0 0 0 0 0 0 0 0 0 0 0 0 0 0 0 0 0 127 0"/>
<feOffset dy="2"/>
<feGaussianBlur stdDeviation="10"/>
<feColorMatrix type="matrix" values="0 0 0 0 0.908333 0 0 0 0 0.927976 0 0 0 0 1 0 0 0 0.5 0"/>
<feBlend mode="normal" in2="BackgroundImageFix" result="effect1_dropShadow"/>
<feBlend mode="normal" in="SourceGraphic" in2="effect1_dropShadow" result="shape"/>
</filter>
<filter id="filter5_d" x="190.691" y="291.066" width="120" height="120" filterUnits="userSpaceOnUse" color-interpolation-filters="sRGB">
<feFlood flood-opacity="0" result="BackgroundImageFix"/>
<feColorMatrix in="SourceAlpha" type="matrix" values="0 0 0 0 0 0 0 0 0 0 0 0 0 0 0 0 0 0 127 0"/>
<feOffset dy="2"/>
<feGaussianBlur stdDeviation="10"/>
<feColorMatrix type="matrix" values="0 0 0 0 0.908333 0 0 0 0 0.927976 0 0 0 0 1 0 0 0 0.5 0"/>
<feBlend mode="normal" in2="BackgroundImageFix" result="effect1_dropShadow"/>
<feBlend mode="normal" in="SourceGraphic" in2="effect1_dropShadow" result="shape"/>
</filter>
<filter id="filter6_d" x="191.555" y="411.284" width="120" height="120" filterUnits="userSpaceOnUse" color-interpolation-filters="sRGB">
<feFlood flood-opacity="0" result="BackgroundImageFix"/>
<feColorMatrix in="SourceAlpha" type="matrix" values="0 0 0 0 0 0 0 0 0 0 0 0 0 0 0 0 0 0 127 0"/>
<feOffset dy="2"/>
<feGaussianBlur stdDeviation="10"/>
<feColorMatrix type="matrix" values="0 0 0 0 0.908333 0 0 0 0 0.927976 0 0 0 0 1 0 0 0 0.5 0"/>
<feBlend mode="normal" in2="BackgroundImageFix" result="effect1_dropShadow"/>
<feBlend mode="normal" in="SourceGraphic" in2="effect1_dropShadow" result="shape"/>
</filter>
<radialGradient id="paint0_radial" cx="0" cy="0" r="1" gradientUnits="userSpaceOnUse" gradientTransform="translate(221.792 469.968) rotate(90) scale(15.3204 17.688)">
<stop stop-color="#20C6B7"/>
<stop offset="1" stop-color="#4D9ABF"/>
</radialGradient>
<clipPath id="clip0">
<rect width="46.457" height="14" fill="white" transform="translate(389.894 342.07)"/>
</clipPath>
<clipPath id="clip1">
<rect width="41.8301" height="25" fill="white" transform="translate(229.776 336.566)"/>
</clipPath>
<clipPath id="clip2">
<rect width="58.8" height="16" fill="white" transform="translate(222.255 462.184)"/>
</clipPath>
<clipPath id="clip3">
<rect width="50.0806" height="30" fill="white" transform="translate(388.515 454.289)"/>
</clipPath>
</defs>
</svg>
