<svg width="100%" height="100%" viewBox="0 0 754 660" fill="none" xmlns="http://www.w3.org/2000/svg">
<g filter="url(#filter0_d)">
<path d="M60.3597 50.7964C60.3597 39.7507 69.314 30.7964 80.3597 30.7964H653.36C664.405 30.7964 673.36 39.7507 673.36 50.7964V529.796C673.36 540.842 664.405 549.796 653.36 549.796H80.3598C69.3141 549.796 60.3597 540.842 60.3597 529.796V50.7964Z" fill="white"/>
</g>
<path d="M60.3597 50.7964C60.3597 39.7507 69.314 30.7964 80.3597 30.7964H653.36C664.405 30.7964 673.36 39.7507 673.36 50.7964V66.7964H60.3597V50.7964Z" fill="#21185A"/>
<circle cx="82.3597" cy="49.7964" r="5" fill="#D41B44"/>
<circle cx="99.3597" cy="49.7964" r="5" fill="#F0B103"/>
<circle cx="116.36" cy="49.7964" r="5" fill="#00976E"/>
<path d="M180.75 176.387C180.789 177.808 181.781 179.535 184.688 179.535C187.024 179.535 188.75 178.387 188.75 176.293C188.75 174.519 187.563 173.762 185.946 173.355L184.164 172.902C183.156 172.66 182.672 172.137 182.672 171.418C182.672 170.363 183.555 169.762 184.821 169.762C186.242 169.762 186.977 170.535 187.063 171.488H188.617C188.578 169.465 186.813 168.41 184.844 168.41C182.836 168.41 181.055 169.512 181.055 171.535C181.055 173.238 182.289 174.051 183.617 174.379L185.414 174.832C186.578 175.121 187.125 175.582 187.125 176.426C187.125 177.496 186.25 178.168 184.828 178.168C183.266 178.168 182.43 177.355 182.336 176.387H180.75ZM193.926 179.457C196.152 179.457 197.035 178.066 197.191 176.996H195.621C195.496 177.582 195.012 178.152 193.918 178.152C192.527 178.152 191.91 177.027 191.91 175.801V175.566H197.293V174.848C197.293 172.551 196.121 170.941 193.824 170.941C191.559 170.941 190.34 172.551 190.34 174.863V175.59C190.34 177.894 191.559 179.457 193.926 179.457ZM191.91 174.41V174.387C191.91 173.137 192.629 172.215 193.824 172.215C195.027 172.215 195.738 173.129 195.738 174.387V174.41H191.91ZM199.359 179.316H200.93V168.09H199.359V179.316ZM206.621 179.457C208.847 179.457 209.73 178.066 209.886 176.996H208.316C208.191 177.582 207.707 178.152 206.613 178.152C205.222 178.152 204.605 177.027 204.605 175.801V175.566H209.988V174.848C209.988 172.551 208.816 170.941 206.519 170.941C204.254 170.941 203.035 172.551 203.035 174.863V175.59C203.035 177.894 204.254 179.457 206.621 179.457ZM204.605 174.41V174.387C204.605 173.137 205.324 172.215 206.519 172.215C207.722 172.215 208.433 173.129 208.433 174.387V174.41H204.605ZM211.601 175.621C211.601 177.887 212.851 179.457 215.101 179.457C217.093 179.457 218.328 178.277 218.375 176.918H216.867C216.726 177.543 216.211 178.09 215.132 178.09C213.89 178.09 213.179 177.043 213.179 175.629V174.777C213.179 173.379 213.789 172.254 215.132 172.254C216.179 172.254 216.742 172.996 216.812 173.59H218.32C218.304 172.223 217.164 170.941 215.101 170.941C212.851 170.941 211.601 172.566 211.601 174.738V175.621ZM220.675 171.113H219.527V172.387H220.66V177.004C220.66 178.644 221.152 179.379 223.128 179.379C223.456 179.379 223.761 179.348 223.894 179.324V178.098C223.792 178.105 223.667 178.113 223.519 178.113C222.558 178.113 222.23 177.863 222.23 176.926V172.387H223.847V171.113H222.23V169.051H220.675V171.113ZM233.105 179.441C235.019 179.441 236.276 178.09 236.276 175.738V174.668C236.276 172.308 235.003 170.957 233.151 170.957C231.839 170.957 231.003 171.496 230.675 172.238H230.62V171.074H229.097V182.144H230.675V178.191H230.73C231.081 178.863 231.816 179.441 233.105 179.441ZM232.714 178.113C231.417 178.113 230.675 176.996 230.675 175.637V174.707C230.675 173.262 231.433 172.269 232.683 172.269C233.925 172.269 234.683 173.168 234.683 174.824V175.566C234.683 177.269 233.87 178.113 232.714 178.113ZM238.46 179.316H240.054V174.316C240.054 173.207 240.515 172.363 241.929 172.363C242.202 172.363 242.491 172.379 242.632 172.41V170.996C242.476 170.973 242.288 170.957 242.085 170.957C240.726 170.957 240.311 171.598 240.085 172.098H240.03V171.082H238.46V179.316ZM247.3 179.457C249.526 179.457 250.409 178.066 250.565 176.996H248.995C248.87 177.582 248.386 178.152 247.292 178.152C245.901 178.152 245.284 177.027 245.284 175.801V175.566H250.667V174.848C250.667 172.551 249.495 170.941 247.198 170.941C244.932 170.941 243.714 172.551 243.714 174.863V175.59C243.714 177.894 244.932 179.457 247.3 179.457ZM245.284 174.41V174.387C245.284 173.137 246.003 172.215 247.198 172.215C248.401 172.215 249.112 173.129 249.112 174.387V174.41H245.284ZM253.21 179.316H254.788V172.387H256.366V171.113H254.764V170.418C254.764 169.496 255.186 169.223 256.038 169.223C256.272 169.223 256.374 169.238 256.491 169.246V168.027C256.342 168.012 256.131 167.98 255.788 167.98C254.022 167.98 253.21 168.691 253.21 170.293V171.113H252.03V172.387H253.21V179.316ZM261.151 179.457C263.377 179.457 264.26 178.066 264.416 176.996H262.846C262.721 177.582 262.237 178.152 261.143 178.152C259.752 178.152 259.135 177.027 259.135 175.801V175.566H264.518V174.848C264.518 172.551 263.346 170.941 261.049 170.941C258.784 170.941 257.565 172.551 257.565 174.863V175.59C257.565 177.894 258.784 179.457 261.151 179.457ZM259.135 174.41V174.387C259.135 173.137 259.854 172.215 261.049 172.215C262.252 172.215 262.963 173.129 262.963 174.387V174.41H259.135ZM266.647 179.316H268.241V174.316C268.241 173.207 268.701 172.363 270.116 172.363C270.389 172.363 270.678 172.379 270.819 172.41V170.996C270.662 170.973 270.475 170.957 270.272 170.957C268.912 170.957 268.498 171.598 268.272 172.098H268.217V171.082H266.647V179.316ZM272.463 179.316H274.057V174.316C274.057 173.207 274.518 172.363 275.932 172.363C276.205 172.363 276.494 172.379 276.635 172.41V170.996C276.479 170.973 276.291 170.957 276.088 170.957C274.729 170.957 274.315 171.598 274.088 172.098H274.033V171.082H272.463V179.316ZM281.303 179.457C283.529 179.457 284.412 178.066 284.568 176.996H282.998C282.873 177.582 282.389 178.152 281.295 178.152C279.904 178.152 279.287 177.027 279.287 175.801V175.566H284.67V174.848C284.67 172.551 283.498 170.941 281.201 170.941C278.936 170.941 277.717 172.551 277.717 174.863V175.59C277.717 177.894 278.936 179.457 281.303 179.457ZM279.287 174.41V174.387C279.287 173.137 280.006 172.215 281.201 172.215C282.404 172.215 283.115 173.129 283.115 174.387V174.41H279.287ZM289.486 170.949C287.4 170.949 286.291 172.504 286.291 174.699V175.691C286.291 177.926 287.408 179.433 289.486 179.433C290.822 179.433 291.713 178.769 291.916 178.066H291.971V179.316H293.494V168.09H291.916V172.238H291.869C291.596 171.527 290.775 170.949 289.486 170.949ZM289.877 172.277C291.158 172.277 291.916 173.269 291.916 174.855V175.496C291.916 177.168 291.166 178.121 289.908 178.121C288.541 178.121 287.892 177.058 287.892 175.48V174.902C287.892 173.355 288.525 172.277 289.877 172.277ZM298.916 175.621C298.916 177.887 300.166 179.457 302.416 179.457C304.408 179.457 305.642 178.277 305.689 176.918H304.181C304.041 177.543 303.525 178.09 302.447 178.09C301.205 178.09 300.494 177.043 300.494 175.629V174.777C300.494 173.379 301.103 172.254 302.447 172.254C303.494 172.254 304.056 172.996 304.126 173.59H305.634C305.619 172.223 304.478 170.941 302.416 170.941C300.166 170.941 298.916 172.566 298.916 174.738V175.621ZM310.818 170.941C308.372 170.941 307.201 172.637 307.201 174.879V175.504C307.201 177.879 308.372 179.457 310.818 179.457C313.263 179.457 314.427 177.855 314.427 175.504V174.871C314.427 172.566 313.263 170.941 310.818 170.941ZM310.818 172.238C312.372 172.238 312.833 173.535 312.833 174.973V175.418C312.833 176.871 312.38 178.144 310.818 178.144C309.255 178.144 308.779 176.871 308.779 175.418V174.973C308.779 173.535 309.263 172.238 310.818 172.238ZM316.478 179.316H318.048V174.449C318.048 173.066 318.751 172.34 319.946 172.34C321.134 172.34 321.798 172.98 321.798 174.394V179.316H323.384V173.855C323.384 171.957 322.095 170.949 320.454 170.949C319.212 170.949 318.384 171.566 318.087 172.199H318.032V171.082H316.478V179.316ZM326.2 171.113H325.052V172.387H326.185V177.004C326.185 178.644 326.677 179.379 328.653 179.379C328.981 179.379 329.286 179.348 329.419 179.324V178.098C329.317 178.105 329.192 178.113 329.044 178.113C328.083 178.113 327.755 177.863 327.755 176.926V172.387H329.372V171.113H327.755V169.051H326.2V171.113ZM334.376 179.457C336.602 179.457 337.485 178.066 337.641 176.996H336.071C335.946 177.582 335.462 178.152 334.368 178.152C332.977 178.152 332.36 177.027 332.36 175.801V175.566H337.743V174.848C337.743 172.551 336.571 170.941 334.274 170.941C332.009 170.941 330.79 172.551 330.79 174.863V175.59C330.79 177.894 332.009 179.457 334.376 179.457ZM332.36 174.41V174.387C332.36 173.137 333.079 172.215 334.274 172.215C335.477 172.215 336.188 173.129 336.188 174.387V174.41H332.36ZM339.755 179.316H341.325V174.449C341.325 173.066 342.028 172.34 343.223 172.34C344.411 172.34 345.075 172.98 345.075 174.394V179.316H346.661V173.855C346.661 171.957 345.372 170.949 343.731 170.949C342.489 170.949 341.661 171.566 341.364 172.199H341.309V171.082H339.755V179.316ZM349.477 171.113H348.329V172.387H349.461V177.004C349.461 178.644 349.954 179.379 351.93 179.379C352.258 179.379 352.563 179.348 352.696 179.324V178.098C352.594 178.105 352.469 178.113 352.321 178.113C351.36 178.113 351.032 177.863 351.032 176.926V172.387H352.649V171.113H351.032V169.051H349.477V171.113ZM358.328 171.113H357.18V172.387H358.313V177.004C358.313 178.644 358.805 179.379 360.781 179.379C361.11 179.379 361.414 179.348 361.547 179.324V178.098C361.446 178.105 361.321 178.113 361.172 178.113C360.211 178.113 359.883 177.863 359.883 176.926V172.387H361.5V171.113H359.883V169.051H358.328V171.113ZM370.402 171.082H368.723L366.645 177.832H366.574L364.512 171.082H362.762L365.738 179.402L365.629 179.793C365.434 180.59 365.043 181.043 364.051 181.043C363.856 181.043 363.551 181.027 363.426 181.004V182.23C363.629 182.262 364.012 182.301 364.356 182.301C366.199 182.301 366.84 181.144 367.332 179.84L367.543 179.269C367.551 179.238 370.402 171.082 370.402 171.082ZM376.086 179.441C378 179.441 379.258 178.09 379.258 175.738V174.668C379.258 172.308 377.984 170.957 376.133 170.957C374.82 170.957 373.984 171.496 373.656 172.238H373.601V171.074H372.078V182.144H373.656V178.191H373.711C374.062 178.863 374.797 179.441 376.086 179.441ZM375.695 178.113C374.398 178.113 373.656 176.996 373.656 175.637V174.707C373.656 173.262 374.414 172.269 375.664 172.269C376.906 172.269 377.664 173.168 377.664 174.824V175.566C377.664 177.269 376.851 178.113 375.695 178.113ZM384.511 179.457C386.738 179.457 387.621 178.066 387.777 176.996H386.207C386.082 177.582 385.597 178.152 384.504 178.152C383.113 178.152 382.496 177.027 382.496 175.801V175.566H387.879V174.848C387.879 172.551 386.707 170.941 384.41 170.941C382.144 170.941 380.926 172.551 380.926 174.863V175.59C380.926 177.894 382.144 179.457 384.511 179.457ZM382.496 174.41V174.387C382.496 173.137 383.215 172.215 384.41 172.215C385.613 172.215 386.324 173.129 386.324 174.387V174.41H382.496Z" fill="#C3C8D2"/>
<rect x="60.3597" y="66.7964" width="613" height="42.8718" fill="#EEEFF1"/>
<path d="M107.961 94.355L113.961 88.355L107.961 82.355" stroke="#C3C8D2" stroke-width="1.5" stroke-linecap="round" stroke-linejoin="round"/>
<path d="M83.4963 94.355L77.4963 88.355L83.4963 82.355" stroke="#C3C8D2" stroke-width="1.5" stroke-linecap="round" stroke-linejoin="round"/>
<path d="M641.26 87.7925H651.76" stroke="#C3C8D2" stroke-width="1.5" stroke-linecap="round" stroke-linejoin="round"/>
<path d="M649.76 90.2925L652.26 87.7925L649.76 85.2925" stroke="#C3C8D2" stroke-width="1.2" stroke-linecap="round" stroke-linejoin="round"/>
<path d="M646.76 90.7898V93.7898C646.772 94.0428 646.683 94.2901 646.512 94.4775C646.342 94.6649 646.104 94.7772 645.851 94.7898H637.669C637.416 94.777 637.179 94.6647 637.008 94.4773C636.838 94.2899 636.749 94.0427 636.76 93.7898V81.7898C636.749 81.5368 636.838 81.2896 637.008 81.1021C637.179 80.9147 637.416 80.8024 637.669 80.7898H645.851C646.104 80.8024 646.342 80.9147 646.512 81.1021C646.683 81.2895 646.772 81.5368 646.76 81.7898V84.7898" stroke="#C3C8D2" stroke-width="1.5" stroke-linecap="round" stroke-linejoin="round"/>
<rect x="136.123" y="78.4746" width="482.885" height="18.6304" rx="2" fill="white"/>
<rect x="180.281" y="232.047" width="45.281" height="45.281" rx="6" fill="#EEEFF1"/>
<path opacity="0.5" d="M208.135 255.024L201.928 248.817C201.664 248.553 201.306 248.405 200.933 248.405H194.953C194.58 248.405 194.223 248.553 193.959 248.817C193.695 249.081 193.547 249.438 193.547 249.811V255.791C193.547 256.164 193.695 256.522 193.959 256.786L200.166 262.993C200.43 263.257 200.788 263.405 201.161 263.405C201.534 263.405 201.891 263.257 202.155 262.993L208.135 257.013C208.399 256.749 208.547 256.392 208.547 256.019C208.547 255.646 208.399 255.288 208.135 255.024ZM196.828 253.092C196.55 253.092 196.278 253.01 196.047 252.855C195.816 252.701 195.636 252.481 195.529 252.224C195.423 251.967 195.395 251.685 195.449 251.412C195.503 251.139 195.637 250.888 195.834 250.692C196.031 250.495 196.281 250.361 196.554 250.307C196.827 250.253 197.11 250.281 197.367 250.387C197.623 250.493 197.843 250.674 197.998 250.905C198.152 251.136 198.235 251.408 198.235 251.686C198.235 252.059 198.086 252.417 197.823 252.681C197.559 252.944 197.201 253.092 196.828 253.092Z" fill="#69738D"/>
<path d="M211.885 257.013L205.905 262.993C205.641 263.257 205.283 263.405 204.911 263.405C204.538 263.405 204.18 263.257 203.916 262.993L203.906 262.983L209.005 257.883C209.25 257.638 209.444 257.348 209.577 257.028C209.709 256.708 209.777 256.365 209.777 256.019C209.777 255.672 209.709 255.329 209.577 255.01C209.444 254.69 209.25 254.399 209.005 254.154L203.256 248.405H204.683C205.056 248.405 205.414 248.553 205.678 248.817L211.885 255.024C212.149 255.288 212.297 255.646 212.297 256.019C212.297 256.392 212.149 256.749 211.885 257.013Z" fill="#69738D"/>
<rect x="244.873" y="242.077" width="55.4319" height="6.32777" rx="2" fill="#EEEFF1"/>
<rect x="244.873" y="260.766" width="89.7376" height="6.32777" rx="2" fill="#EEEFF1"/>
<rect x="180.281" y="321.059" width="45.281" height="45.281" rx="6" fill="#EEEFF1"/>
<path opacity="0.5" d="M197.939 342.926C199.39 342.926 200.566 341.751 200.566 340.3C200.566 338.848 199.39 337.673 197.939 337.673C196.488 337.673 195.313 338.848 195.313 340.3C195.313 341.751 196.488 342.926 197.939 342.926ZM196.626 344.239C195.175 344.239 194 345.414 194 346.865V348.178C194 348.904 194.588 349.492 195.313 349.492H197.142C197.644 349.492 198.059 349.117 198.196 348.635C198.513 347.522 199.143 346.528 200.007 345.768C200.509 345.326 200.602 344.511 199.957 344.333C199.73 344.27 199.493 344.238 199.253 344.239H196.626Z" fill="#69738D"/>
<path d="M208.218 346.077H208.177C208.025 346.077 207.875 346.114 207.736 346.174C207.093 346.453 206.398 346.6 205.697 346.603C204.969 346.603 204.285 346.443 203.655 346.171C203.517 346.112 203.371 346.077 203.221 346.077H203.176C201.088 346.077 199.394 347.771 199.394 349.859V350.805C199.394 351.675 200.1 352.38 200.969 352.38H210.424C211.294 352.38 212 351.675 212 350.805V349.859C212 347.771 210.306 346.077 208.218 346.077ZM205.697 345.027C207.729 345.027 209.374 343.382 209.374 341.35C209.374 339.318 207.726 337.673 205.697 337.673C203.668 337.673 202.02 339.318 202.02 341.35C202.02 343.379 203.665 345.027 205.694 345.027C205.694 345.027 205.694 345.027 205.697 345.027Z" fill="#69738D"/>
<rect x="244.873" y="331.089" width="55.4319" height="6.32777" rx="2" fill="#EEEFF1"/>
<rect x="244.873" y="349.778" width="89.7376" height="6.32777" rx="2" fill="#EEEFF1"/>
<rect x="180.281" y="410.071" width="45.281" height="45.281" rx="6" fill="#EEEFF1"/>
<path opacity="0.5" d="M203 435.245H202.953C202.801 435.245 202.652 435.281 202.512 435.342C201.856 435.627 201.145 435.777 200.429 435.78C199.685 435.78 198.985 435.617 198.342 435.339C198.204 435.28 198.058 435.245 197.908 435.245H197.857C195.728 435.245 194 436.972 194 439.102V440.066C194 440.953 194.72 441.673 195.607 441.673H205.25C206.137 441.673 206.857 440.953 206.857 440.066V439.102C206.857 436.972 205.129 435.245 203 435.245ZM200.429 434.173C202.501 434.173 204.179 432.496 204.179 430.423C204.179 428.351 202.501 426.673 200.429 426.673C198.356 426.673 196.679 428.351 196.679 430.423C196.679 432.493 198.356 434.173 200.425 434.173H200.429Z" fill="#69738D"/>
<path d="M210.704 431.93H208.829V430.055C208.829 429.908 208.709 429.787 208.561 429.787H206.954C206.807 429.787 206.686 429.908 206.686 430.055V431.93H204.811C204.664 431.93 204.544 432.051 204.544 432.198V433.805C204.544 433.952 204.664 434.073 204.811 434.073H206.686V435.948C206.686 436.095 206.807 436.216 206.954 436.216H208.561C208.709 436.216 208.829 436.095 208.829 435.948V434.073H210.704C210.852 434.073 210.972 433.952 210.972 433.805V432.198C210.972 432.051 210.852 431.93 210.704 431.93Z" fill="#69738D"/>
<rect x="244.873" y="420.101" width="55.4319" height="6.32777" rx="2" fill="#EEEFF1"/>
<rect x="244.873" y="438.79" width="89.7376" height="6.32777" rx="2" fill="#EEEFF1"/>
<rect x="399.109" y="232.047" width="45.281" height="45.281" rx="6" fill="#EEEFF1"/>
<path opacity="0.5" d="M429.015 248.706L426.805 246.496C426.655 246.346 426.451 246.262 426.236 246.262H426.035H419.339C418.894 246.262 418.535 246.62 418.535 247.066V259.387C418.535 259.832 418.894 260.191 419.339 260.191H428.446C428.891 260.191 429.25 259.832 429.25 259.387V249.476V249.272C429.25 249.061 429.166 248.857 429.015 248.706Z" fill="#69738D"/>
<path d="M417.464 259.387V250.476C417.464 249.924 417.016 249.476 416.464 249.476H415.053C414.608 249.476 414.25 249.835 414.25 250.28V262.601C414.25 263.047 414.608 263.405 415.053 263.405H424.16C424.606 263.405 424.964 263.047 424.964 262.601V262.262C424.964 261.71 424.516 261.262 423.964 261.262H419.339C418.304 261.262 417.464 260.422 417.464 259.387Z" fill="#69738D"/>
<rect x="463.7" y="242.077" width="55.4319" height="6.32777" rx="2" fill="#EEEFF1"/>
<rect x="463.7" y="260.766" width="89.7376" height="6.32777" rx="2" fill="#EEEFF1"/>
<rect x="399.109" y="321.059" width="45.281" height="45.281" rx="6" fill="#EEEFF1"/>
<path opacity="0.5" d="M424 345.67H418.072L415.484 347.611C415.439 347.644 415.386 347.665 415.33 347.67C415.273 347.675 415.217 347.664 415.167 347.639C415.117 347.613 415.074 347.574 415.045 347.526C415.015 347.478 415 347.423 415 347.367V345.673C414.47 345.673 413.961 345.462 413.586 345.087C413.211 344.712 413 344.203 413 343.673V338.673C413 338.143 413.211 337.635 413.586 337.26C413.961 336.885 414.47 336.674 415 336.673H424C424.53 336.674 425.039 336.885 425.414 337.26C425.789 337.635 426 338.143 426 338.673V343.673C426 343.936 425.948 344.196 425.848 344.438C425.747 344.681 425.6 344.901 425.414 345.086C425.228 345.272 425.008 345.419 424.765 345.519C424.522 345.619 424.262 345.67 424 345.67Z" fill="#69738D"/>
<path d="M431 343.673V348.673C431 349.204 430.789 349.712 430.414 350.087C430.039 350.462 429.53 350.673 429 350.673H428V352.37C428 352.426 427.985 352.482 427.955 352.53C427.926 352.578 427.883 352.616 427.833 352.642C427.783 352.667 427.727 352.678 427.67 352.673C427.614 352.668 427.561 352.648 427.516 352.614L424.928 350.673H421C420.47 350.673 419.961 350.462 419.586 350.087C419.211 349.712 419 349.204 419 348.673V346.673H424C424.795 346.672 425.558 346.356 426.12 345.793C426.682 345.231 426.999 344.468 427 343.673V341.673H429C429.53 341.674 430.039 341.885 430.414 342.26C430.789 342.635 431 343.143 431 343.673Z" fill="#69738D"/>
<rect x="463.7" y="331.089" width="55.4319" height="6.32777" rx="2" fill="#EEEFF1"/>
<rect x="463.7" y="349.778" width="89.7376" height="6.32777" rx="2" fill="#EEEFF1"/>
<rect x="399.109" y="410.071" width="45.281" height="45.281" rx="6" fill="#EEEFF1"/>
<rect x="414" y="425.673" width="7" height="7" rx="1" fill="#69738D"/>
<rect opacity="0.5" x="414" y="434.673" width="7" height="7" rx="1" fill="#69738D"/>
<rect opacity="0.5" x="423" y="425.673" width="7" height="7" rx="1" fill="#69738D"/>
<rect opacity="0.5" x="423" y="434.673" width="7" height="7" rx="1" fill="#69738D"/>
<rect x="463.7" y="420.101" width="55.4319" height="6.32777" rx="2" fill="#EEEFF1"/>
<rect x="463.7" y="438.79" width="89.7376" height="6.32777" rx="2" fill="#EEEFF1"/>
<defs>
<filter id="filter0_d" x="0.359741" y="0.796387" width="753" height="659" filterUnits="userSpaceOnUse" color-interpolation-filters="sRGB">
<feFlood flood-opacity="0" result="BackgroundImageFix"/>
<feColorMatrix in="SourceAlpha" type="matrix" values="0 0 0 0 0 0 0 0 0 0 0 0 0 0 0 0 0 0 127 0"/>
<feOffset dx="10" dy="40"/>
<feGaussianBlur stdDeviation="35"/>
<feColorMatrix type="matrix" values="0 0 0 0 0.412129 0 0 0 0 0.394965 0 0 0 0 0.520833 0 0 0 0.1 0"/>
<feBlend mode="normal" in2="BackgroundImageFix" result="effect1_dropShadow"/>
<feBlend mode="normal" in="SourceGraphic" in2="effect1_dropShadow" result="shape"/>
</filter>
</defs>
</svg>
