<svg width="100%" height="100%" viewBox="0 0 753 660" fill="none" xmlns="http://www.w3.org/2000/svg">
<g filter="url(#filter0_d)">
<path d="M80 50.2683C80 39.2226 88.9543 30.2683 100 30.2683H673C684.046 30.2683 693 39.2226 693 50.2683V529.268C693 540.314 684.046 549.268 673 549.268H100C88.9543 549.268 80 540.314 80 529.268V50.2683Z" fill="white"/>
</g>
<path d="M80 50.2683C80 39.2226 88.9543 30.2683 100 30.2683H673C684.046 30.2683 693 39.2226 693 50.2683V66.2683H80V50.2683Z" fill="#21185A"/>
<circle cx="102" cy="49.2683" r="5" fill="#D41B44"/>
<circle cx="119" cy="49.2683" r="5" fill="#F0B103"/>
<circle cx="136" cy="49.2683" r="5" fill="#00976E"/>
<path d="M204.836 214.554V205.289H208.016V203.89H200.062V205.289H203.242V214.554H204.836ZM209.394 214.554H210.965V206.32H209.394V214.554ZM209.199 204.304C209.199 204.828 209.613 205.218 210.168 205.218C210.761 205.218 211.16 204.828 211.16 204.304C211.16 203.781 210.754 203.398 210.168 203.398C209.613 203.398 209.199 203.781 209.199 204.304ZM214.007 206.351H212.859V207.625H213.992V212.242C213.992 213.882 214.484 214.617 216.461 214.617C216.789 214.617 217.093 214.585 217.226 214.562V213.335C217.125 213.343 217 213.351 216.851 213.351C215.89 213.351 215.562 213.101 215.562 212.164V207.625H217.179V206.351H215.562V204.289H214.007V206.351ZM219.128 214.554H220.699V203.328H219.128V214.554ZM226.39 214.695C228.616 214.695 229.499 213.304 229.656 212.234H228.085C227.96 212.82 227.476 213.39 226.382 213.39C224.991 213.39 224.374 212.265 224.374 211.039V210.804H229.757V210.085C229.757 207.789 228.585 206.179 226.288 206.179C224.023 206.179 222.804 207.789 222.804 210.101V210.828C222.804 213.132 224.023 214.695 226.39 214.695ZM224.374 209.648V209.625C224.374 208.375 225.093 207.453 226.288 207.453C227.491 207.453 228.202 208.367 228.202 209.625V209.648H224.374Z" fill="#C3C8D2"/>
<path d="M201.156 322.486V333.15H204.726C208.211 333.15 209.445 330.877 209.445 327.807C209.445 324.689 208.164 322.486 204.726 322.486H201.156ZM202.766 323.861H204.586C206.937 323.861 207.781 325.439 207.781 327.83C207.781 330.479 206.742 331.768 204.586 331.768H202.766V323.861ZM214.754 333.291C216.98 333.291 217.863 331.9 218.019 330.83H216.449C216.324 331.416 215.84 331.986 214.746 331.986C213.355 331.986 212.738 330.861 212.738 329.635V329.4H218.121V328.682C218.121 326.385 216.949 324.775 214.652 324.775C212.386 324.775 211.168 326.385 211.168 328.697V329.424C211.168 331.729 212.386 333.291 214.754 333.291ZM212.738 328.244V328.221C212.738 326.971 213.457 326.049 214.652 326.049C215.855 326.049 216.566 326.963 216.566 328.221V328.244H212.738ZM219.757 327.291C219.757 328.908 220.992 329.299 222.507 329.611C223.64 329.83 224.57 329.986 224.57 330.877C224.57 331.549 224.062 332.096 222.836 332.096C221.812 332.096 221.242 331.604 221.14 330.9H219.609C219.609 332.377 220.867 333.291 222.765 333.291C224.796 333.291 226.109 332.338 226.109 330.689C226.109 329.111 224.882 328.65 223.343 328.377C222.421 328.213 221.281 328.096 221.281 327.143C221.281 326.393 221.921 325.955 222.843 325.955C224.023 325.955 224.406 326.666 224.453 327.26H225.89C225.89 325.838 224.828 324.775 222.89 324.775C221.25 324.775 219.757 325.525 219.757 327.291ZM227.691 329.455C227.691 331.721 228.941 333.291 231.191 333.291C233.183 333.291 234.417 332.111 234.464 330.752H232.956C232.816 331.377 232.3 331.924 231.222 331.924C229.98 331.924 229.269 330.877 229.269 329.463V328.611C229.269 327.213 229.878 326.088 231.222 326.088C232.269 326.088 232.831 326.83 232.902 327.424H234.41C234.394 326.057 233.253 324.775 231.191 324.775C228.941 324.775 227.691 326.4 227.691 328.572V329.455ZM236.491 333.15H238.085V328.15C238.085 327.041 238.546 326.197 239.96 326.197C240.234 326.197 240.523 326.213 240.663 326.244V324.83C240.507 324.807 240.32 324.791 240.116 324.791C238.757 324.791 238.343 325.432 238.116 325.932H238.062V324.916H236.491V333.15ZM242.378 333.15H243.948V324.916H242.378V333.15ZM242.183 322.9C242.183 323.424 242.597 323.814 243.151 323.814C243.745 323.814 244.144 323.424 244.144 322.9C244.144 322.377 243.737 321.994 243.151 321.994C242.597 321.994 242.183 322.377 242.183 322.9ZM250.601 333.275C252.515 333.275 253.772 331.924 253.772 329.572V328.502C253.772 326.143 252.499 324.791 250.647 324.791C249.335 324.791 248.499 325.33 248.171 326.072H248.116V324.908H246.593V335.979H248.171V332.025H248.226C248.577 332.697 249.311 333.275 250.601 333.275ZM250.21 331.947C248.913 331.947 248.171 330.83 248.171 329.471V328.541C248.171 327.096 248.929 326.104 250.179 326.104C251.421 326.104 252.179 327.002 252.179 328.658V329.4C252.179 331.104 251.366 331.947 250.21 331.947ZM256.229 324.947H255.081V326.221H256.214V330.838C256.214 332.479 256.706 333.213 258.682 333.213C259.011 333.213 259.315 333.182 259.448 333.158V331.932C259.346 331.939 259.221 331.947 259.073 331.947C258.112 331.947 257.784 331.697 257.784 330.76V326.221H259.401V324.947H257.784V322.885H256.229V324.947ZM261.483 333.15H263.053V324.916H261.483V333.15ZM261.288 322.9C261.288 323.424 261.702 323.814 262.256 323.814C262.85 323.814 263.249 323.424 263.249 322.9C263.249 322.377 262.842 321.994 262.256 321.994C261.702 321.994 261.288 322.377 261.288 322.9ZM268.909 324.775C266.463 324.775 265.291 326.471 265.291 328.713V329.338C265.291 331.713 266.463 333.291 268.909 333.291C271.354 333.291 272.518 331.689 272.518 329.338V328.705C272.518 326.4 271.354 324.775 268.909 324.775ZM268.909 326.072C270.463 326.072 270.924 327.369 270.924 328.807V329.252C270.924 330.705 270.471 331.979 268.909 331.979C267.346 331.979 266.87 330.705 266.87 329.252V328.807C266.87 327.369 267.354 326.072 268.909 326.072ZM274.569 333.15H276.139V328.283C276.139 326.9 276.842 326.174 278.037 326.174C279.225 326.174 279.889 326.814 279.889 328.229V333.15H281.475V327.689C281.475 325.791 280.186 324.783 278.545 324.783C277.303 324.783 276.475 325.4 276.178 326.033H276.123V324.916H274.569V333.15Z" fill="#C3C8D2"/>
<path d="M406.514 203.89V214.554H408.116V210.664H410.514C412.631 210.664 413.983 209.296 413.983 207.289C413.983 205.296 412.639 203.89 410.522 203.89H406.514ZM408.116 205.25H410.319C411.592 205.25 412.334 205.992 412.334 207.289C412.334 208.937 411.327 209.328 409.616 209.328H408.116V205.25ZM418.83 206.179C416.385 206.179 415.213 207.875 415.213 210.117V210.742C415.213 213.117 416.385 214.695 418.83 214.695C421.276 214.695 422.44 213.093 422.44 210.742V210.109C422.44 207.804 421.276 206.179 418.83 206.179ZM418.83 207.476C420.385 207.476 420.846 208.773 420.846 210.21V210.656C420.846 212.109 420.393 213.382 418.83 213.382C417.268 213.382 416.791 212.109 416.791 210.656V210.21C416.791 208.773 417.276 207.476 418.83 207.476ZM424.115 208.695C424.115 210.312 425.35 210.703 426.865 211.015C427.998 211.234 428.928 211.39 428.928 212.281C428.928 212.953 428.42 213.5 427.194 213.5C426.17 213.5 425.6 213.007 425.498 212.304H423.967C423.967 213.781 425.225 214.695 427.123 214.695C429.154 214.695 430.467 213.742 430.467 212.093C430.467 210.515 429.24 210.054 427.701 209.781C426.779 209.617 425.639 209.5 425.639 208.546C425.639 207.796 426.279 207.359 427.201 207.359C428.381 207.359 428.764 208.07 428.811 208.664H430.248C430.248 207.242 429.186 206.179 427.248 206.179C425.608 206.179 424.115 206.929 424.115 208.695ZM432.854 206.351H431.705V207.625H432.838V212.242C432.838 213.882 433.33 214.617 435.307 214.617C435.635 214.617 435.939 214.585 436.072 214.562V213.335C435.971 213.343 435.846 213.351 435.697 213.351C434.736 213.351 434.408 213.101 434.408 212.164V207.625H436.025V206.351H434.408V204.289H432.854V206.351Z" fill="#C3C8D2"/>
<rect x="80" y="66.2683" width="613" height="42.8718" fill="#EEEFF1"/>
<path d="M127.601 93.8269L133.601 87.8269L127.601 81.8269" stroke="#C3C8D2" stroke-width="1.5" stroke-linecap="round" stroke-linejoin="round"/>
<path d="M103.137 93.8269L97.1366 87.8269L103.137 81.8269" stroke="#C3C8D2" stroke-width="1.5" stroke-linecap="round" stroke-linejoin="round"/>
<path d="M660.901 87.2644H671.401" stroke="#C3C8D2" stroke-width="1.5" stroke-linecap="round" stroke-linejoin="round"/>
<path d="M669.401 89.7644L671.901 87.2644L669.401 84.7644" stroke="#C3C8D2" stroke-width="1.2" stroke-linecap="round" stroke-linejoin="round"/>
<path d="M666.401 90.2617V93.2617C666.412 93.5148 666.323 93.762 666.152 93.9494C665.982 94.1368 665.744 94.2491 665.491 94.2617H657.309C657.056 94.2489 656.819 94.1366 656.649 93.9492C656.478 93.7618 656.389 93.5146 656.401 93.2617V81.2617C656.389 81.0087 656.478 80.7615 656.648 80.5741C656.819 80.3866 657.056 80.2743 657.309 80.2617H665.491C665.744 80.2743 665.982 80.3866 666.152 80.574C666.323 80.7614 666.412 81.0087 666.401 81.2617V84.2617" stroke="#C3C8D2" stroke-width="1.5" stroke-linecap="round" stroke-linejoin="round"/>
<rect x="155.763" y="77.9465" width="482.885" height="18.6304" rx="2" fill="white"/>
<rect x="199.922" y="231.52" width="167.799" height="45.281" rx="6" fill="#EEEFF1"/>
<rect x="199.922" y="350.116" width="373.157" height="104.709" rx="6" fill="#EEEFF1"/>
<rect x="405.28" y="231.52" width="167.799" height="45.281" rx="6" fill="#EEEFF1"/>
<defs>
<filter id="filter0_d" x="0" y="0.268311" width="753" height="659" filterUnits="userSpaceOnUse" color-interpolation-filters="sRGB">
<feFlood flood-opacity="0" result="BackgroundImageFix"/>
<feColorMatrix in="SourceAlpha" type="matrix" values="0 0 0 0 0 0 0 0 0 0 0 0 0 0 0 0 0 0 127 0"/>
<feOffset dx="-10" dy="40"/>
<feGaussianBlur stdDeviation="35"/>
<feColorMatrix type="matrix" values="0 0 0 0 0.412129 0 0 0 0 0.394965 0 0 0 0 0.520833 0 0 0 0.1 0"/>
<feBlend mode="normal" in2="BackgroundImageFix" result="effect1_dropShadow"/>
<feBlend mode="normal" in="SourceGraphic" in2="effect1_dropShadow" result="shape"/>
</filter>
</defs>
</svg>
